<svg width="785" height="619" viewBox="0 0 785 619" fill="none" xmlns="http://www.w3.org/2000/svg">
<path d="M415.035 107.272C445.059 -1.48205 580.001 -36.5101 657.396 44.7216C658.563 45.8892 659.564 47.0567 660.732 48.2243C771.654 168.821 722.281 470.228 488.761 538.95C246.234 610.174 15.3824 479.236 1.70477 356.304C-11.806 233.372 94.946 194.675 260.745 229.036C354.487 248.551 396.354 174.992 415.035 107.272Z" fill="#FFF3E5"/>
<path d="M31.5618 382.992C44.739 346.296 65.4222 335.12 85.1046 311.768C109.124 283.079 125.303 262.229 119.132 225.199C108.957 164.817 104.62 14.3637 264.248 34.0461C321.46 41.0517 366.83 84.9201 399.69 128.789C427.712 165.985 478.086 169.321 518.618 177.995C568.491 188.67 619.198 204.849 665.235 228.368C760.144 277.074 788.5 346.963 784.664 436.535C783.496 463.556 779.66 506.09 733.957 555.964C672.241 623.184 582.669 632.191 474.916 601.333C450.23 594.328 426.878 583.152 402.692 574.812C377.505 566.138 351.151 560.467 324.629 557.798C262.747 551.794 198.529 562.636 139.148 544.121C107.789 534.28 78.933 516.432 56.2482 492.579C27.7254 463.056 17.7173 421.69 31.5618 382.992Z" fill="#F8E7D4"/>
<path d="M146.321 533.779V469.728C146.321 462.055 203.2 462.055 203.2 469.728V533.613C203.033 539.617 146.321 539.617 146.321 533.779Z" fill="white" stroke="#50BB7F" stroke-width="1.668" stroke-miterlimit="10"/>
<path d="M146.321 476.4V480.07C152.159 481.571 161.667 483.406 174.511 483.406C187.688 483.406 197.362 481.571 203.2 479.903V476.4C197.863 477.901 188.021 479.903 174.511 479.903C161.5 479.903 151.826 477.901 146.321 476.4Z" fill="#50BB7F"/>
<path d="M174.677 472.397C160.674 472.397 149.323 470.903 149.323 469.061C149.323 467.218 160.674 465.725 174.677 465.725C188.679 465.725 200.03 467.218 200.03 469.061C200.03 470.903 188.679 472.397 174.677 472.397Z" fill="#009D76"/>
<path d="M180.849 469.061H169.173C168.506 465.558 161.667 429.029 167.839 397.67C174.344 364.811 194.193 345.128 206.537 359.306C218.88 373.317 203.367 400.839 191.858 420.689C180.849 439.37 180.849 466.225 180.849 469.061Z" fill="#50BB7F"/>
<path d="M176.511 469.061H173.342C170.173 417.853 193.358 378.322 193.692 377.988C194.192 377.321 195.026 376.987 195.86 377.487C196.527 377.988 196.861 378.822 196.361 379.656C196.194 379.99 173.509 418.687 176.511 469.061Z" fill="#009D76"/>
<path d="M126.805 368.147C153.327 368.147 168.172 448.711 166.337 469.561H154.995C153.994 464.224 149.657 450.045 129.808 418.02C120.634 403.175 99.617 368.147 126.805 368.147Z" fill="#50BB7F"/>
<path d="M131.476 390.665C132.143 390.164 133.144 390.498 133.645 391.165C133.811 391.666 156.329 431.698 161.667 469.728H158.498C153.16 432.532 131.143 393.167 130.809 392.833C130.475 391.999 130.642 390.998 131.476 390.665Z" fill="#009D76"/>
<path d="M182.683 469.728C182.183 454.883 203.033 394.334 220.713 398.671C240.062 403.508 218.879 432.031 211.039 442.54C198.362 459.386 193.525 466.726 191.69 469.728H182.683Z" fill="#50BB7F"/>
<path d="M186.019 469.728C192.024 444.708 213.541 415.518 214.542 414.183C215.042 413.516 216.043 413.349 216.71 413.85C217.378 414.35 217.544 415.351 217.044 416.018C216.877 416.352 195.36 445.208 189.188 469.728H186.019Z" fill="#009D76"/>
<path d="M561.654 330.45C534.632 318.774 530.295 348.965 542.305 372.984C550.478 389.164 579.835 430.53 599.517 465.725H622.035C614.529 412.349 589.676 342.46 561.654 330.45Z" fill="#50BB7F"/>
<path d="M614.195 465.558C595.013 401.007 550.645 340.291 550.478 339.958C550.144 339.457 549.31 339.291 548.81 339.624C548.309 339.958 548.143 340.792 548.476 341.292C548.643 341.459 592.511 401.674 611.693 465.558H614.195Z" fill="#035700"/>
<path d="M619.033 234.707C646.388 207.852 665.07 241.879 661.233 275.906C657.564 308.266 626.039 419.187 629.875 465.892H619.033C594.513 406.177 584.005 269.067 619.033 234.707Z" fill="#51BC80"/>
<path d="M623.036 466.059C600.351 371.817 636.713 241.212 636.88 240.878C637.047 240.044 637.881 239.544 638.715 239.711C639.549 239.878 640.049 240.712 639.716 241.546C639.549 242.046 603.02 372.651 626.038 466.059H623.036Z" fill="#018500"/>
<path d="M686.253 293.921C714.943 280.243 720.447 312.436 708.271 338.456C698.263 359.974 655.228 423.358 638.048 464.557L623.87 464.057C625.371 406.511 652.393 310.1 686.253 293.921Z" fill="#50BB7F"/>
<path d="M629.04 464.223C642.05 386.828 698.429 304.095 698.596 303.762C698.929 303.261 699.763 303.095 700.43 303.428C700.931 303.762 701.098 304.596 700.764 305.096C700.597 305.43 644.552 387.662 631.542 464.223H629.04Z" fill="#035E00"/>
<path d="M589.843 471.062H645.221L659.565 484.073L647.889 529.609H617.532H587.174L575.331 484.073L589.843 471.062Z" fill="white" stroke="#50BB7F" stroke-width="1.668" stroke-miterlimit="10"/>
<path d="M659.565 484.073L657.23 493.414H577.833L575.331 484.073H659.565Z" fill="#50BB7F"/>
<path d="M575.332 454.049H659.566C662.068 454.049 664.069 456.051 664.069 458.553V479.403C664.069 481.905 662.068 483.906 659.566 483.906H575.332C572.83 483.906 570.828 481.905 570.828 479.403V458.553C570.828 456.217 572.83 454.049 575.332 454.049Z" fill="white" stroke="#50BB7F" stroke-width="1.668" stroke-miterlimit="10"/>
<path d="M511.279 207.018C511.946 207.018 512.613 207.685 512.613 208.353V210.855C512.613 211.522 511.946 212.189 511.279 212.189C510.612 212.189 509.944 211.522 509.944 210.855V208.353C509.944 207.685 510.612 207.018 511.279 207.018Z" fill="#ABC4C8"/>
<path d="M511.279 213.19C511.946 213.19 512.613 213.857 512.613 214.524V217.026C512.613 217.693 511.946 218.361 511.279 218.361C510.612 218.361 509.944 217.693 509.944 217.026V214.524C509.944 213.69 510.612 213.19 511.279 213.19Z" fill="#ABC4C8"/>
<path d="M511.279 219.028C511.946 219.028 512.613 219.695 512.613 220.362V222.864C512.613 223.531 511.946 224.198 511.279 224.198C510.612 224.198 509.944 223.531 509.944 222.864V220.362C509.944 219.695 510.612 219.028 511.279 219.028Z" fill="#ABC4C8"/>
<path d="M511.279 225.033C511.946 225.033 512.613 225.7 512.613 226.367V228.869C512.613 229.536 511.946 230.204 511.279 230.204C510.612 230.204 509.944 229.536 509.944 228.869V226.367C509.944 225.7 510.612 225.033 511.279 225.033Z" fill="#ABC4C8"/>
<path d="M511.279 231.037C511.946 231.037 512.613 231.705 512.613 232.372V234.874C512.613 235.541 511.946 236.208 511.279 236.208C510.612 236.208 509.944 235.541 509.944 234.874V232.372C509.944 231.538 510.612 231.037 511.279 231.037Z" fill="#ABC4C8"/>
<path d="M511.279 236.875C511.946 236.875 512.613 237.543 512.613 238.21V240.712C512.613 241.379 511.946 242.046 511.279 242.046C510.612 242.046 509.944 241.379 509.944 240.712V238.21C509.944 237.543 510.612 236.875 511.279 236.875Z" fill="#ABC4C8"/>
<path d="M511.279 242.88C511.946 242.88 512.613 243.547 512.613 244.215V246.717C512.613 247.384 511.946 248.051 511.279 248.051C510.612 248.051 509.944 247.384 509.944 246.717V244.215C509.944 243.547 510.612 242.88 511.279 242.88Z" fill="#ABC4C8"/>
<path d="M511.279 248.885C511.946 248.885 512.613 249.552 512.613 250.219V252.721C512.613 253.389 511.946 254.056 511.279 254.056C510.612 254.056 509.944 253.389 509.944 252.721V250.219C509.944 249.385 510.612 248.885 511.279 248.885Z" fill="#ABC4C8"/>
<path d="M510.445 252.388C509.945 252.388 509.445 252.721 509.278 253.222L505.942 263.563C505.775 264.064 506.108 264.397 506.609 264.397H516.117C516.617 264.397 516.951 264.064 516.784 263.563L513.448 253.222C513.281 252.721 512.781 252.388 512.28 252.388H510.445Z" fill="white"/>
<path d="M482.589 213.357H486.092C486.926 213.357 487.593 214.024 487.593 214.858V535.448C487.593 536.282 486.926 536.949 486.092 536.949H482.589C481.755 536.949 481.088 536.282 481.088 535.448V214.858C481.088 214.024 481.755 213.357 482.589 213.357Z" fill="#7A9297"/>
<path d="M479.42 185.668H489.095C491.43 185.668 493.265 187.502 493.265 189.838V217.026C493.265 219.361 491.43 221.196 489.095 221.196H479.42C477.085 221.196 475.25 219.361 475.25 217.026V189.838C475.25 187.502 477.085 185.668 479.42 185.668Z" fill="#7A9297"/>
<path d="M479.42 523.438H489.095C491.43 523.438 493.265 525.273 493.265 527.608V546.456C493.265 548.791 491.43 550.626 489.095 550.626H479.42C477.085 550.626 475.25 548.791 475.25 546.456V527.608C475.25 525.273 477.085 523.438 479.42 523.438Z" fill="#7A9297"/>
<path d="M465.91 552.795H502.94C504.941 552.795 506.609 551.127 506.609 549.125C506.609 547.123 504.941 545.456 502.94 545.456H465.91C463.909 545.456 462.241 547.123 462.241 549.125C462.241 551.127 463.909 552.795 465.91 552.795Z" fill="#7A9297"/>
<path d="M484.258 144.468H467.244C464.576 144.468 461.74 146.637 460.906 149.305L443.726 203.682C442.892 206.351 444.393 208.519 447.062 208.519H484.425H521.788C524.457 208.519 525.958 206.351 525.124 203.682L507.944 149.305C507.11 146.637 504.274 144.468 501.605 144.468H484.258Z" fill="white"/>
<path d="M451.231 179.83L449.229 186.001H519.285L517.283 179.83H451.231ZM448.061 189.838L444.058 202.181H524.289L520.286 189.838H448.061Z" fill="#C8DEE1"/>
<path d="M511.28 213.356C510.912 213.356 510.613 213.058 510.613 212.689C510.613 212.321 510.912 212.022 511.28 212.022C511.649 212.022 511.947 212.321 511.947 212.689C511.947 213.058 511.649 213.356 511.28 213.356Z" fill="#7A9297"/>
<path d="M511.28 219.361C510.912 219.361 510.613 219.063 510.613 218.694C510.613 218.326 510.912 218.027 511.28 218.027C511.649 218.027 511.947 218.326 511.947 218.694C511.947 219.063 511.649 219.361 511.28 219.361Z" fill="#7A9297"/>
<path d="M511.28 225.199C510.912 225.199 510.613 224.901 510.613 224.532C510.613 224.164 510.912 223.865 511.28 223.865C511.649 223.865 511.947 224.164 511.947 224.532C511.947 224.901 511.649 225.199 511.28 225.199Z" fill="#7A9297"/>
<path d="M511.28 231.204C510.912 231.204 510.613 230.905 510.613 230.537C510.613 230.168 510.912 229.87 511.28 229.87C511.649 229.87 511.947 230.168 511.947 230.537C511.947 230.905 511.649 231.204 511.28 231.204Z" fill="#7A9297"/>
<path d="M511.28 237.209C510.912 237.209 510.613 236.91 510.613 236.542C510.613 236.173 510.912 235.875 511.28 235.875C511.649 235.875 511.947 236.173 511.947 236.542C511.947 236.91 511.649 237.209 511.28 237.209Z" fill="#7A9297"/>
<path d="M511.28 243.214C510.912 243.214 510.613 242.915 510.613 242.546C510.613 242.178 510.912 241.879 511.28 241.879C511.649 241.879 511.947 242.178 511.947 242.546C511.947 242.915 511.649 243.214 511.28 243.214Z" fill="#7A9297"/>
<path d="M511.28 249.052C510.912 249.052 510.613 248.753 510.613 248.384C510.613 248.016 510.912 247.717 511.28 247.717C511.649 247.717 511.947 248.016 511.947 248.384C511.947 248.753 511.649 249.052 511.28 249.052Z" fill="#7A9297"/>
<path d="M355.987 319.608C355.987 319.608 345.979 319.608 337.806 319.608C329.633 319.608 324.129 316.939 317.29 304.93C310.284 292.92 301.611 277.741 301.611 277.741C301.611 277.741 295.606 267.9 280.26 267.9C264.914 267.9 240.228 267.9 234.39 267.9C228.552 267.9 216.876 268.734 212.873 278.242C208.87 287.583 193.691 324.612 193.691 324.612L222.714 326.781L250.57 373.985C250.57 373.985 288.934 376.987 296.44 376.153C304.113 375.319 333.136 373.485 333.136 373.485L355.987 319.608Z" fill="#EA574D"/>
<path d="M294.606 197.01C294.606 197.01 300.277 198.511 305.115 203.682C307.95 206.685 338.475 264.397 340.81 268.401C343.145 272.237 344.48 282.579 340.81 289.417C337.14 296.256 315.456 334.453 315.456 334.453L307.283 322.11C307.283 322.11 324.63 283.913 325.297 281.911C326.131 279.91 326.298 278.075 324.13 275.239C321.962 272.404 300.611 246.55 300.611 246.55C300.611 246.55 285.099 210.021 294.606 197.01Z" fill="#FF802A"/>
<path d="M272.589 544.455V389.998C272.589 388.997 273.423 388.33 274.257 388.33H275.592C276.593 388.33 277.26 389.164 277.26 389.998V544.455C277.26 545.456 276.426 546.123 275.592 546.123H274.257C273.257 546.123 272.589 545.456 272.589 544.455Z" fill="#00000F"/>
<path d="M272.588 383.826H277.258C280.761 383.826 283.764 386.662 283.764 390.331V396.503C283.764 400.006 280.928 403.008 277.258 403.008H272.588C269.085 403.008 266.083 400.173 266.083 396.503V390.331C266.083 386.662 268.918 383.826 272.588 383.826Z" fill="#141A33"/>
<path d="M270.921 536.782H278.761C280.596 536.782 282.264 538.283 282.264 540.285V542.787C282.264 544.622 280.762 546.289 278.761 546.289H270.921C269.086 546.289 267.418 544.788 267.418 542.787V540.285C267.585 538.283 269.086 536.782 270.921 536.782Z" fill="#141A33"/>
<path d="M254.241 541.452H295.774C298.609 541.452 301.111 543.787 301.111 546.79V550.626C301.111 553.462 298.776 555.964 295.774 555.964H254.241C251.405 555.964 248.903 553.629 248.903 550.626V546.79C248.903 543.787 251.238 541.452 254.241 541.452Z" fill="#030822"/>
<path d="M241.896 386.995C241.896 384.493 243.898 382.492 246.4 382.492H303.446C305.948 382.492 307.949 384.493 307.949 386.995C307.949 389.497 305.948 391.499 303.446 391.499H246.4C243.898 391.499 241.896 389.497 241.896 386.995Z" fill="#030822"/>
<path d="M229.72 385.161C229.72 383.826 230.888 382.659 232.222 382.659H317.624C318.958 382.659 320.126 383.826 320.126 385.161C320.126 386.495 318.958 387.663 317.624 387.663H232.222C230.721 387.663 229.72 386.495 229.72 385.161Z" fill="#00000F"/>
<path d="M290.101 375.153H232.222C229.386 375.153 227.218 377.488 227.218 380.157C227.218 382.992 229.553 385.161 232.222 385.161H290.101C292.937 385.161 295.105 382.826 295.105 380.157C295.105 377.488 292.937 375.153 290.101 375.153Z" fill="#C83C4A"/>
<path d="M323.129 375.153H273.756C270.92 375.153 268.752 377.488 268.752 380.157C268.752 382.992 271.087 385.161 273.756 385.161H323.129C325.964 385.161 328.133 382.826 328.133 380.157C328.133 377.488 325.798 375.153 323.129 375.153Z" fill="#DA5252"/>
<path d="M220.379 278.242C217.043 286.081 205.868 313.436 202.365 321.943H197.861H197.695C196.027 321.943 194.525 322.944 193.858 324.445C193.858 324.445 209.037 287.582 213.04 278.075C217.043 268.734 228.553 267.733 234.557 267.733C236.059 267.733 238.727 267.733 242.063 267.733C235.892 268.067 224.383 268.901 220.379 278.242Z" fill="#D84743"/>
<path d="M376.338 327.948C378.673 327.948 380.508 326.113 380.508 323.778C380.508 321.443 378.673 319.608 376.338 319.608H353.987C352.152 319.608 350.651 320.776 350.15 322.277L327.799 371.817H252.405L225.384 324.112C224.55 322.777 223.215 321.943 221.881 321.943H197.862C195.527 321.943 193.692 323.778 193.692 326.113C193.692 328.449 195.527 330.283 197.862 330.283H219.546L246.234 377.821C246.901 379.156 248.402 380.157 249.903 380.157H330.468C331.969 380.157 333.47 379.323 334.304 377.655L356.822 327.948H376.338Z" fill="#EC6957"/>
<path d="M360.66 508.593C360.66 508.593 386.848 384.994 388.182 370.983C389.516 357.639 396.856 338.29 311.621 325.113C308.118 324.612 305.282 320.943 301.279 320.442C301.279 320.442 233.392 323.778 226.052 326.781C218.546 329.783 238.229 355.303 301.78 361.308C365.33 367.313 348.984 388.83 348.984 388.83C348.984 388.83 346.649 502.421 345.148 508.426C343.646 514.264 354.488 517.266 360.66 508.593Z" fill="#00000F"/>
<path d="M298.442 313.603C301.278 314.938 306.282 326.113 309.951 327.448C324.129 332.785 342.31 338.29 350.984 344.128C360.158 350.299 363.994 359.473 366.83 366.646C370.5 376.153 413.701 475.733 416.203 479.903C418.705 484.073 411.199 490.745 408.196 492.246C405.194 493.747 401.024 488.243 401.024 488.243C401.024 488.243 346.48 395.002 330.801 371.983H263.414C263.414 371.983 241.73 368.481 230.054 353.302C217.377 336.955 227.886 296.757 233.39 296.256C243.898 295.255 276.758 290.085 293.772 298.425C303.78 303.429 293.772 313.603 298.442 313.603Z" fill="#030822"/>
<path d="M298.443 313.603C301.278 314.938 306.282 326.113 309.952 327.448C311.12 327.948 312.287 328.282 313.455 328.782C313.455 328.782 278.427 320.942 267.918 332.618C257.41 344.294 258.578 361.475 291.771 362.643C324.964 363.81 330.135 363.81 334.805 362.643C339.476 361.475 375.338 433.533 384.678 443.707C388.348 447.711 393.852 446.042 399.19 442.54C407.864 462.222 415.036 478.568 416.037 480.07C418.539 484.24 411.033 490.912 408.03 492.413C405.028 493.914 400.858 488.41 400.858 488.41C400.858 488.41 346.314 395.169 330.635 372.15H263.248C263.248 372.15 241.564 368.647 229.888 353.469C217.211 337.122 227.72 296.923 233.224 296.423C243.732 295.422 276.592 290.251 293.606 298.591C303.78 303.429 293.772 313.603 298.443 313.603Z" fill="#00000F"/>
<path d="M421.209 477.567L410.367 483.072C409.533 483.572 409.199 484.573 409.533 485.574L413.536 493.58C414.036 494.414 415.037 494.748 416.038 494.414L426.88 488.91C427.714 488.409 428.048 487.409 427.714 486.408L423.711 478.401C423.21 477.567 422.21 477.067 421.209 477.567Z" fill="#D84743"/>
<path d="M403.694 504.423C403.694 504.423 403.36 505.59 403.194 505.757C403.027 506.091 405.028 509.593 405.195 510.094C405.862 511.595 407.197 512.596 408.698 511.762L417.872 507.091L412.368 499.919L407.03 498.585L403.694 504.423Z" fill="#F2DDDC"/>
<path d="M411.534 467.393L401.526 472.564C400.359 473.064 400.025 474.565 400.526 475.566L409.199 492.58C409.7 493.747 411.201 494.081 412.202 493.581L422.21 488.41C423.377 487.909 423.711 486.408 423.21 485.407L414.537 468.394C414.036 467.226 412.702 466.892 411.534 467.393Z" fill="#FF802A"/>
<path d="M411.034 499.585C410.033 498.751 408.532 500.419 407.198 498.584C402.361 492.246 396.356 478.735 397.19 478.235L402.361 475.566C403.028 475.232 402.194 476.066 405.196 476.4C407.698 475.066 412.536 482.405 417.206 485.407C419.875 487.075 419.875 486.908 421.042 486.241C422.21 485.574 421.543 485.908 422.377 485.574C423.211 485.074 425.88 484.74 422.043 482.071C418.207 479.236 414.704 476.4 414.037 474.899C413.203 473.398 413.87 470.228 414.37 469.561C414.871 468.727 417.206 469.061 417.706 469.227C418.373 469.394 418.874 469.895 419.374 470.895C419.875 471.896 421.543 475.066 422.21 476.4C422.877 477.734 433.719 481.738 435.387 484.907C437.055 488.076 436.722 487.576 437.055 488.243C437.389 488.91 437.389 489.577 437.389 490.077C437.389 490.578 437.389 491.245 437.389 491.245L414.204 503.088C414.537 503.088 412.035 501.754 411.034 499.585Z" fill="#FF802A"/>
<path d="M403.862 504.423C403.862 504.423 399.692 496.083 398.858 494.581C398.024 493.08 399.025 491.078 398.024 489.077C396.856 486.908 395.022 483.239 394.688 482.405C394.354 481.738 395.522 479.402 396.022 479.236L401.193 476.567C401.193 476.567 400.526 479.736 400.526 480.07C400.526 480.57 402.694 484.406 403.862 486.575C405.03 488.743 403.862 491.078 404.196 491.579C404.529 492.079 405.196 493.58 405.864 494.915C406.531 496.249 409.533 498.918 413.87 496.416C418.207 493.914 416.372 491.912 422.377 488.91C428.215 485.908 429.216 485.407 431.384 484.24C432.385 483.739 432.885 483.072 433.052 482.572C434.22 483.072 435.22 483.906 435.888 485.074C437.389 488.076 437.222 487.742 437.556 488.41C437.889 489.077 437.889 489.911 437.722 490.411C437.556 490.912 437.722 491.579 437.722 491.579L412.536 504.423C412.536 503.255 412.035 501.921 412.035 501.921L411.702 500.753C411.702 500.753 410.701 500.253 409.033 501.087C407.365 501.921 406.03 502.588 405.53 502.921C404.863 502.921 403.862 504.423 403.862 504.423Z" fill="#FF802A"/>
<path d="M411.534 500.419C411.534 500.419 410.533 501.92 410.366 502.254C410.199 502.588 412.201 506.09 412.368 506.591C412.535 506.924 414.369 508.092 415.037 508.092C415.037 508.092 415.871 508.259 416.538 507.758C417.372 507.425 435.887 497.917 437.555 496.916C439.223 496.082 439.556 495.916 440.223 495.582C440.891 495.248 441.057 494.414 440.724 493.914C440.39 493.247 439.389 491.245 439.056 490.745C438.722 490.244 437.555 490.078 437.555 490.078C437.555 490.078 435.887 492.246 433.385 491.912C430.883 491.579 428.547 491.412 426.546 493.58C424.544 495.749 418.206 503.588 411.534 500.419Z" fill="white"/>
<path d="M411.534 500.419C411.534 500.419 410.533 501.92 410.367 502.254C410.2 502.588 412.201 506.09 412.368 506.591C412.535 506.924 414.37 508.092 415.037 508.092C415.037 508.092 415.871 508.259 416.538 507.759L432.051 499.752C433.385 498.418 434.553 497.25 434.553 497.25C434.553 497.25 421.709 503.755 419.874 504.756C417.873 505.757 416.538 505.59 416.205 504.923C415.871 504.256 415.371 503.255 414.703 502.087C414.537 501.754 414.703 501.42 414.87 501.087C413.703 501.253 412.535 500.92 411.534 500.419Z" fill="#F2DDDC"/>
<path d="M426.38 499.919C425.045 501.754 423.377 503.755 421.876 505.09C427.714 502.087 436.388 497.584 437.389 497.083C439.057 496.249 439.39 496.083 440.057 495.749C440.725 495.415 440.891 494.581 440.558 494.081C440.558 493.914 440.391 493.747 440.224 493.581C440.224 493.581 438.389 495.916 436.054 495.415C433.886 494.748 429.716 495.249 426.38 499.919Z" fill="#00000F"/>
<path d="M423.543 480.904C423.71 480.737 423.71 480.403 423.376 480.237C423.043 480.07 422.709 480.07 422.375 480.403L419.039 483.739L413.368 484.907C413.035 484.907 412.868 485.241 412.868 485.574C413.035 485.908 413.368 485.908 413.702 485.908L417.705 485.074L415.37 487.576C415.203 487.742 415.203 488.076 415.537 488.243C415.87 488.41 416.204 488.41 416.537 488.076L419.873 484.74L425.545 483.573C425.878 483.573 426.045 483.239 426.045 482.905C425.878 482.572 425.545 482.572 425.211 482.572L421.208 483.406L423.543 480.904ZM405.695 477.401L411.367 476.233L414.703 472.897C414.869 472.731 415.37 472.564 415.703 472.731C416.037 472.897 416.037 473.231 415.87 473.398L413.535 475.9L417.538 475.066C417.872 475.066 418.205 475.066 418.372 475.399C418.539 475.733 418.205 475.9 417.872 476.067L412.201 477.234L408.865 480.57C408.698 480.737 408.197 480.904 407.864 480.737C407.53 480.57 407.53 480.236 407.697 480.07L410.032 477.568L406.029 478.402C405.695 478.402 405.362 478.402 405.195 478.068C405.195 477.735 405.362 477.401 405.695 477.401ZM409.532 481.071L415.203 479.903L418.539 476.567C418.706 476.4 419.206 476.233 419.54 476.4C419.873 476.567 419.873 476.901 419.707 477.067L417.371 479.569L421.375 478.735C421.708 478.735 422.042 478.735 422.209 479.069C422.375 479.402 422.042 479.569 421.708 479.736L416.037 480.904L412.701 484.24C412.534 484.406 412.034 484.573 411.7 484.407C411.367 484.24 411.366 483.906 411.533 483.739L413.869 481.237L409.865 482.071C409.532 482.071 409.198 482.071 409.031 481.738C409.031 481.404 409.198 481.237 409.532 481.071Z" fill="white"/>
<path d="M258.577 168.487L258.744 174.659C258.744 174.659 258.244 187.669 258.244 189.17C258.244 190.505 257.576 191.005 255.742 192.173C253.406 195.842 259.078 211.522 263.581 212.189C268.085 212.856 288.601 211.522 290.102 210.521C291.103 209.687 281.095 196.009 281.762 193.674C280.928 193.507 280.094 193.174 279.427 192.506C275.257 188.837 276.091 178.662 279.26 175.159C281.596 172.49 258.577 168.487 258.577 168.487Z" fill="#F5AC83"/>
<path d="M295.107 216.359C291.437 214.191 289.269 215.859 285.099 219.695C280.929 223.531 277.092 223.198 274.757 224.032C272.422 224.866 271.421 261.061 285.766 266.899C291.104 269.068 294.606 266.899 296.775 262.729C300.945 255.057 304.614 222.03 295.107 216.359Z" fill="#F6F5F4"/>
<path d="M227.22 314.104C228.888 317.94 234.892 321.276 241.898 323.778C252.406 319.608 270.254 325.947 283.765 325.279C299.11 324.612 305.282 321.109 305.282 321.109L306.283 321.777C306.783 321.443 307.117 321.109 307.284 320.776C308.952 318.107 308.118 314.104 307.45 310.601C306.283 304.263 300.945 308.599 303.114 278.575C305.449 248.385 313.455 196.843 281.096 193.174C281.096 193.174 281.43 193.841 281.93 195.342H280.596C280.596 195.342 283.431 204.516 277.426 207.519C271.422 210.521 264.75 206.184 261.914 202.681C261.58 202.181 261.08 202.014 260.413 202.014C258.411 199.345 256.243 196.843 253.741 194.175C246.902 195.175 235.893 200.346 235.893 200.346C230.389 202.681 224.384 207.852 223.383 213.357C221.882 221.196 229.722 247.717 235.059 264.731C244.4 292.92 222.216 302.761 227.22 314.104Z" fill="white"/>
<path d="M278.427 216.859C278.427 216.859 293.273 273.238 295.441 284.413C295.441 284.413 295.775 286.749 294.273 289.584C292.605 292.42 287.601 301.761 286.767 302.928C285.933 304.096 285.433 303.262 284.432 302.261C283.431 301.26 276.926 294.421 275.759 293.087C275.091 292.42 274.591 291.419 274.758 288.917C275.091 273.238 276.426 258.893 275.592 242.046C275.091 232.872 274.424 224.199 273.59 218.194L268.92 213.69L270.921 209.687C270.921 209.687 273.59 208.186 276.593 208.519C279.595 208.853 280.596 211.021 280.596 211.021L278.427 216.859Z" fill="#9E9BA5"/>
<path d="M297.775 323.611C303.113 322.444 305.448 321.109 305.448 321.109L306.449 321.777C306.949 321.443 307.283 321.109 307.45 320.776C309.118 318.107 308.284 314.104 307.616 310.601C306.449 304.262 301.111 308.599 303.28 278.575C305.281 251.554 311.953 207.518 290.269 195.842C285.432 199.178 282.43 204.683 282.596 213.356L282.93 215.358C282.93 215.358 284.431 217.026 284.598 217.36C284.765 217.693 288.268 257.725 288.268 257.725L297.775 323.611Z" fill="#9E9BA5"/>
<path d="M279.761 216.859C279.761 216.859 294.607 273.238 296.775 284.413C296.775 284.413 297.109 286.749 295.607 289.584C293.939 292.42 288.935 301.761 288.101 302.928C287.267 304.096 286.767 303.262 285.766 302.261C284.765 301.26 278.26 294.421 277.093 293.087C276.425 292.42 275.925 291.419 276.092 288.917C276.425 273.238 277.76 258.893 276.926 242.046C276.425 232.872 275.758 224.199 274.924 218.194L276.092 213.19C276.092 213.357 279.761 215.025 279.761 216.859Z" fill="#030822"/>
<path d="M285.766 302.428C284.765 301.427 278.26 294.588 277.092 293.254C276.425 292.587 275.924 291.586 276.091 289.084C276.425 273.405 277.759 259.06 276.925 242.213C276.425 233.039 275.758 224.365 274.924 218.36L275.758 214.858L277.759 215.858L278.426 216.859C278.426 216.859 277.592 217.527 277.092 218.527C276.592 219.361 279.594 249.219 280.261 256.224C280.928 263.23 281.762 290.418 281.762 292.086C281.596 293.754 285.766 302.428 285.766 302.428Z" fill="#030822"/>
<path d="M287.101 245.382C291.104 261.228 295.607 278.909 296.775 284.58C296.775 284.58 297.109 286.915 295.607 289.751C295.107 290.585 294.273 292.086 293.439 293.587L288.268 257.392C288.268 257.392 287.768 252.054 287.101 245.382Z" fill="#030822"/>
<path d="M281.93 211.021L279.761 217.026C279.761 217.026 276.926 216.025 274.757 218.36L270.087 213.857L272.088 209.854C272.088 209.854 274.757 208.352 277.76 208.686C280.929 208.686 281.93 211.021 281.93 211.021Z" fill="#030822"/>
<path d="M277.092 216.859C276.425 217.026 275.591 217.527 274.923 218.194L270.253 213.69L272.255 209.687C272.255 209.687 274.923 208.186 277.926 208.519C278.093 208.519 278.426 208.519 278.593 208.686L278.76 209.02C278.76 209.02 276.258 210.688 275.591 211.355C274.757 211.855 277.092 216.859 277.092 216.859Z" fill="#030822"/>
<path d="M253.407 192.34C252.907 192.673 251.739 193.34 250.905 194.341C250.905 194.341 250.238 195.342 250.905 197.01C251.573 198.678 266.918 217.86 266.918 217.86C266.918 217.86 267.419 218.527 268.086 217.86C268.753 217.026 274.758 208.352 274.758 208.352L255.576 192.006C254.742 191.172 253.908 192.006 253.407 192.34Z" fill="white"/>
<path d="M279.094 192.34C280.428 191.839 283.097 192.34 284.098 193.341C286.767 196.009 284.598 211.855 283.764 214.691C283.764 214.691 283.097 215.525 282.263 214.858C281.429 214.357 276.759 207.519 276.759 207.519C277.426 206.351 282.764 199.512 279.094 192.34Z" fill="white"/>
<path d="M252.072 193.174C252.072 193.174 273.756 239.211 276.091 260.895C278.427 282.579 260.579 327.615 259.411 330.117C258.244 332.619 235.726 343.294 225.217 343.294C225.217 343.294 223.549 343.294 223.216 342.793C222.882 342.293 221.214 340.458 220.714 339.791C220.213 339.124 219.713 337.789 220.213 336.121C220.714 334.453 231.222 279.576 232.557 272.404C233.891 265.231 224.217 227.535 222.715 220.529C221.214 213.523 219.213 200.68 252.072 193.174Z" fill="#FF802A"/>
<path d="M257.243 204.85C263.748 220.029 274.423 246.049 276.091 260.895C276.258 262.229 276.258 263.563 276.258 264.898C273.756 258.726 271.421 255.056 266.917 250.553C262.914 246.55 257.076 241.379 253.74 238.377C248.569 234.04 241.897 229.703 242.731 225.032C243.565 220.195 246.734 205.85 246.734 205.85L257.243 204.85Z" fill="#FF802A"/>
<path d="M261.746 371.983H247.068L222.882 326.947L194.025 328.115L222.381 377.821C223.049 379.156 224.55 380.157 226.051 380.157H261.746V371.983Z" fill="#D84743"/>
<path d="M263.915 371.983H252.406L225.384 324.279C224.55 322.944 223.216 322.11 221.881 322.11H197.862C195.527 322.11 193.692 323.945 193.692 326.28C193.692 328.615 195.527 330.45 197.862 330.45H219.546L246.234 377.821C246.901 379.156 248.403 380.157 249.904 380.157H263.748V371.983H263.915Z" fill="#EC6957"/>
<path d="M284.097 193.341C284.097 193.341 288.434 249.719 289.601 256.391C290.769 263.063 300.443 316.439 301.277 320.275C302.111 324.279 313.287 325.279 313.287 325.279C313.287 325.279 306.949 272.571 306.949 271.069C306.949 269.568 306.782 230.37 306.782 225.7C306.782 220.863 301.277 203.348 300.277 201.347C299.276 199.679 293.104 195.009 284.097 193.341Z" fill="#FF802A"/>
<path d="M285.265 208.352C286.599 225.533 288.767 251.887 289.601 256.224C289.768 257.558 290.269 260.394 291.103 264.397C291.103 264.397 297.107 219.862 296.607 218.36C296.107 216.692 289.268 204.182 289.268 204.182L285.265 208.352Z" fill="#FF802A"/>
<path d="M284.099 193.341C284.099 193.341 284.766 202.514 285.767 213.857C288.936 209.687 292.772 204.349 292.439 203.682C291.771 202.515 286.601 193.841 286.601 193.841C285.6 193.674 284.933 193.507 284.099 193.341Z" fill="#FF802A"/>
<path d="M245.233 195.009C245.233 195.009 241.897 209.353 241.897 210.354C241.897 211.188 258.076 219.862 265.082 223.365C258.744 207.185 252.238 193.174 252.238 193.174C249.57 193.841 247.234 194.341 245.233 195.009Z" fill="#FF802A"/>
<path d="M230.888 201.18C230.888 201.18 225.717 203.682 221.881 209.854C219.713 213.357 195.026 278.742 193.358 283.079C191.69 287.416 192.524 297.591 197.528 303.596C199.53 305.931 205.368 312.936 211.706 320.442C217.211 326.947 227.219 326.614 235.058 327.114C229.554 319.275 212.207 294.922 211.373 293.588C210.205 291.92 209.705 290.085 211.206 286.749C212.707 283.413 233.891 249.385 233.891 249.385C233.891 249.385 242.564 212.022 230.888 201.18Z" fill="#FF802A"/>
<path d="M192.691 291.586C193.191 295.756 194.692 300.259 197.361 303.595C199.53 306.264 206.202 314.104 213.04 322.11C214.041 323.278 219.879 328.949 225.217 328.949C225.55 328.949 234.224 326.781 234.558 326.614C233.223 324.779 231.555 322.444 229.554 319.608C224.55 319.441 212.707 318.774 212.206 317.94C211.539 316.939 198.696 303.262 196.027 299.592C193.525 295.923 192.691 291.753 192.691 291.586Z" fill="#030822"/>
<path d="M230.222 254.556L231.056 237.876C223.716 249.886 213.041 269.902 210.873 274.739C206.536 283.746 206.202 288.75 206.202 290.085C206.202 291.419 207.37 290.752 208.037 291.085C208.704 291.419 213.208 296.423 213.208 296.423C212.04 294.588 211.206 293.421 211.04 293.254C209.872 291.586 209.372 289.751 210.873 286.415C212.04 284.08 224.217 264.231 230.222 254.556Z" fill="#FF802A"/>
<path d="M256.241 332.619L256.074 332.786C254.573 333.119 242.23 342.46 231.388 342.627L225.216 328.782C225.216 328.782 230.888 321.276 224.883 312.77C228.052 296.256 231.888 276.574 232.556 272.571C233.223 268.901 230.888 256.725 228.386 245.049L231.221 237.876C231.221 237.876 237.226 264.064 238.06 266.066C238.727 268.067 248.902 266.232 250.07 266.066C251.237 265.899 241.396 269.735 239.561 270.736C237.726 271.57 234.39 304.596 234.557 307.432C234.724 310.268 255.074 331.618 256.241 332.619Z" fill="#FF802A"/>
<path d="M292.604 196.009C296.774 200.513 303.613 209.854 306.448 224.365C306.448 224.532 306.448 224.532 306.615 224.532C306.282 221.696 304.947 216.526 303.613 211.855C300.777 205.016 297.274 200.012 294.606 196.843C293.938 196.676 293.271 196.343 292.604 196.009Z" fill="#FF802A"/>
<path d="M230.555 242.713C230.555 242.88 230.722 243.047 230.889 243.214C231.056 243.214 231.223 243.047 231.389 242.88C231.389 242.713 232.057 214.524 225.218 205.684C225.051 205.851 224.884 206.017 224.717 206.184C231.223 214.357 230.555 242.547 230.555 242.713Z" fill="#FF802A"/>
<path d="M239.896 327.781H229.554C226.552 327.781 224.217 325.446 224.217 322.444C224.217 319.441 226.552 317.106 229.554 317.106H239.896C242.898 317.106 245.233 319.441 245.233 322.444C245.233 325.446 242.898 327.781 239.896 327.781Z" fill="#F08A71"/>
<path d="M300.111 132.959C300.111 132.959 301.612 135.961 301.612 138.63C301.612 141.299 295.774 142.467 293.773 142.467C291.771 142.467 238.395 144.468 238.395 144.468C238.395 144.468 236.727 144.135 236.727 142.633C236.727 140.965 245.901 121.116 245.901 121.116L300.111 132.959Z" fill="#2A0D09"/>
<path d="M297.441 164.317C292.743 164.317 288.935 160.509 288.935 155.81C288.935 151.112 292.743 147.304 297.441 147.304C302.14 147.304 305.948 151.112 305.948 155.81C305.948 160.509 302.14 164.317 297.441 164.317Z" fill="#E9695B"/>
<path d="M239.23 164.317C234.531 164.317 230.723 160.509 230.723 155.81C230.723 151.112 234.531 147.304 239.23 147.304C243.928 147.304 247.736 151.112 247.736 155.81C247.736 160.509 243.928 164.317 239.23 164.317Z" fill="#E9695B"/>
<path d="M270.253 104.436C254.24 104.436 241.229 117.613 241.229 133.459V159.981C241.229 175.993 254.407 189.004 270.253 189.004C286.265 189.004 299.276 175.827 299.276 159.981V133.459C299.443 117.447 286.265 104.436 270.253 104.436Z" fill="#F5AC83"/>
<path d="M258.41 106.938C248.235 111.608 241.229 121.783 241.229 133.459V159.98C241.229 175.993 254.407 189.004 270.419 189.004C274.089 189.004 277.592 188.336 280.928 187.002C252.405 187.169 249.236 167.82 249.236 151.64C249.236 127.788 275.423 136.295 296.774 136.295C297.775 136.295 298.609 136.295 299.609 136.295V133.459C299.609 130.79 299.276 128.288 298.609 125.953C287.099 118.781 271.253 109.273 263.747 107.772C261.579 107.272 259.911 106.938 258.91 106.771L258.41 106.938C258.577 106.938 258.577 106.938 258.41 106.938Z" fill="#EE9073"/>
<path d="M244.4 131.791C244.4 131.791 244.4 137.296 244.4 140.798C244.4 144.301 243.733 145.302 242.065 146.636C242.065 146.636 243.065 149.972 241.231 150.806C241.231 150.806 241.231 148.138 238.395 147.804V124.619C239.729 126.787 241.731 128.622 244.733 129.79C244.567 130.457 244.4 131.124 244.4 131.791Z" fill="#4F3A38"/>
<path d="M236.727 142.633C238.562 140.465 240.73 138.63 243.399 137.129H243.566C243.9 136.962 244.066 136.795 244.4 136.628C249.571 133.626 251.239 129.79 251.239 129.79C253.741 131.458 263.582 131.124 267.419 131.124C267.919 131.124 268.253 131.124 268.753 131.124H268.92C285.6 130.457 301.613 134.46 301.779 138.63C316.124 108.272 280.095 79.0825 248.07 112.276C230.889 113.11 232.39 130.457 236.727 142.633Z" fill="#4F3A38"/>
<path d="M304.781 123.451C304.448 118.114 302.78 113.276 299.944 109.273C292.271 113.944 273.59 122.117 252.406 107.939C251.405 108.773 250.404 109.774 249.404 110.608C256.242 117.947 274.09 131.791 304.781 123.451Z" fill="#6A514F"/>
<path d="M236.727 142.633C238.562 140.465 240.73 138.63 243.399 137.129H243.566C243.899 136.962 244.066 136.795 244.4 136.628C249.571 133.626 251.239 129.79 251.239 129.79C253.741 131.458 263.582 131.124 267.418 131.124C267.919 131.124 268.252 131.124 268.753 131.124H268.919C270.421 131.124 272.089 131.124 273.59 131.124C252.239 130.29 241.898 122.617 237.394 117.113C232.057 123.284 233.725 134.126 236.727 142.633Z" fill="#2A0D09"/>
<path d="M261.913 167.82C259.702 167.82 257.91 166.028 257.91 163.817C257.91 161.606 259.702 159.814 261.913 159.814C264.124 159.814 265.916 161.606 265.916 163.817C265.916 166.028 264.124 167.82 261.913 167.82Z" fill="#E9695B"/>
<path d="M292.77 168.821C290.559 168.821 288.767 167.029 288.767 164.818C288.767 162.607 290.559 160.815 292.77 160.815C294.981 160.815 296.773 162.607 296.773 164.818C296.773 167.029 294.981 168.821 292.77 168.821Z" fill="#E9695B"/>
<path d="M295.774 146.97C296.274 147.137 296.774 147.137 296.941 146.637C297.108 146.136 297.108 145.636 296.608 145.469C296.608 145.469 291.437 142.467 286.6 144.969C286.099 145.135 285.932 145.803 286.266 146.136C286.433 146.637 287.1 146.804 287.434 146.47C291.437 144.302 295.774 146.97 295.774 146.97Z" fill="#00000F"/>
<path d="M259.411 144.969C258.911 145.135 258.41 144.969 258.244 144.468C258.077 143.968 258.244 143.467 258.744 143.301C258.744 143.301 264.248 140.799 268.752 143.801C269.086 144.135 269.252 144.635 268.919 144.969C268.585 145.302 268.085 145.469 267.751 145.135C264.082 142.8 259.411 144.969 259.411 144.969Z" fill="#00000F"/>
<path d="M263.248 149.138C264.582 149.138 265.75 150.306 265.75 151.64V154.976C265.75 156.311 264.582 157.478 263.248 157.478C261.914 157.478 260.746 156.311 260.746 154.976V151.64C260.746 150.306 261.747 149.138 263.248 149.138Z" fill="#00000F"/>
<path d="M291.103 150.64C292.438 150.64 293.605 151.807 293.605 153.142V156.478C293.605 157.812 292.438 158.98 291.103 158.98C289.769 158.98 288.601 157.812 288.601 156.478V153.142C288.601 151.807 289.769 150.64 291.103 150.64Z" fill="#00000F"/>
<path d="M271.586 166.652C271.419 170.489 274.255 173.658 278.091 173.992C281.928 174.158 285.097 171.323 285.431 167.486C285.431 166.819 284.93 166.319 284.263 166.152L272.921 165.485C272.253 165.651 271.586 166.152 271.586 166.652Z" fill="#00000F"/>
<path d="M273.755 172.157C274.923 173.157 276.257 173.825 277.925 173.991C279.26 173.991 280.594 173.825 281.595 173.157C281.094 171.656 279.76 170.655 277.758 170.322C276.09 170.322 274.589 170.989 273.755 172.157Z" fill="#D84743"/>
<path d="M284.263 166.319L273.588 165.652C273.421 166.819 273.754 167.987 274.588 168.32C275.589 168.654 283.262 168.988 283.762 168.32C284.096 168.154 284.263 167.153 284.263 166.319Z" fill="white"/>
<path d="M442.225 343.127L425.879 549.125H433.218L455.236 352.801H578.167L600.185 549.125H607.357L591.011 343.127H442.225Z" fill="#3F4154"/>
<path d="M146.823 343.127L130.477 549.125H137.816L159.667 352.801H282.765L304.616 549.125H311.955L295.609 343.127H146.823Z" fill="#3F4154"/>
<path d="M205.703 331.951H596.015C599.518 331.951 602.354 334.787 602.354 338.289C602.354 341.792 599.518 344.628 596.015 344.628H205.703C202.2 344.628 199.365 341.792 199.365 338.289C199.365 334.787 202.2 331.951 205.703 331.951Z" fill="#F1A272"/>
<path d="M138.649 331.951H303.781C307.284 331.951 310.119 334.787 310.119 338.29C310.119 341.792 307.284 344.628 303.781 344.628H138.649C135.146 344.628 132.31 341.792 132.31 338.29C132.31 334.787 135.146 331.951 138.649 331.951Z" fill="#C37744"/>
<path d="M714.107 551.127H692.757C689.087 551.127 686.085 554.129 686.085 557.799C686.085 561.468 689.087 564.471 692.757 564.471H702.931C705.934 564.471 708.269 566.806 708.269 569.808C708.269 572.811 705.934 575.146 702.931 575.146H56.4143C53.4119 575.146 51.0767 572.811 51.0767 569.808C51.0767 566.806 53.4119 564.471 56.4143 564.471H66.0887C69.7583 564.471 72.7607 561.468 72.7607 557.799C72.7607 554.129 69.7583 551.127 66.0887 551.127H23.8883C18.0503 551.127 13.2131 546.29 13.2131 540.452C13.2131 534.614 18.0503 529.776 23.8883 529.776H714.107C719.945 529.776 724.782 534.614 724.782 540.452C724.782 546.29 719.945 551.127 714.107 551.127ZM717.443 575.313C720.445 575.313 722.781 572.978 722.781 569.975C722.781 566.973 720.445 564.638 717.443 564.638C714.441 564.638 712.105 566.973 712.105 569.975C712.105 572.978 714.441 575.313 717.443 575.313Z" fill="#00000F"/>
<path d="M382.843 79.5826H326.632C322.629 79.5826 319.293 82.9187 319.293 86.9219V117.446V119.782V139.297C319.293 139.631 319.459 139.964 319.793 140.131C320.127 140.298 320.46 140.131 320.627 139.964L333.304 127.288H382.843C386.847 127.288 390.183 123.951 390.183 119.948V87.0886C390.183 82.9186 386.847 79.5826 382.843 79.5826Z" fill="#E9695B"/>
<path d="M370.333 105.937C367.831 105.937 365.83 103.936 365.83 101.434C365.83 98.9316 367.831 96.93 370.333 96.93C372.835 96.93 374.837 98.9316 374.837 101.434C374.837 103.936 372.835 105.937 370.333 105.937Z" fill="white"/>
<path d="M354.822 105.937C352.32 105.937 350.318 103.936 350.318 101.434C350.318 98.9316 352.32 96.93 354.822 96.93C357.324 96.93 359.325 98.9316 359.325 101.434C359.325 103.936 357.324 105.937 354.822 105.937Z" fill="white"/>
<path d="M339.141 105.937C336.639 105.937 334.637 103.936 334.637 101.434C334.637 98.9316 336.639 96.93 339.141 96.93C341.643 96.93 343.645 98.9316 343.645 101.434C343.645 103.936 341.643 105.937 339.141 105.937Z" fill="white"/>
<path d="M457.569 319.942H497.601C499.269 319.942 500.77 320.609 501.771 321.776C502.772 322.777 503.605 324.278 503.605 325.946C503.605 327.614 502.938 329.116 501.771 330.116C500.77 331.117 499.269 331.951 497.601 331.951H457.569C455.901 331.951 454.399 331.284 453.399 330.116C452.398 329.116 451.564 327.614 451.564 325.946C451.564 324.278 452.231 322.777 453.399 321.776C454.399 320.609 455.901 319.942 457.569 319.942Z" fill="#3B3A3A"/>
<path d="M546.974 320.609H495.933C493.097 320.609 490.595 322.944 490.595 325.946C490.595 328.782 492.93 331.284 495.933 331.284H546.974V320.609Z" fill="white"/>
<path d="M546.973 319.942C547.307 319.942 547.641 320.275 547.641 320.609C547.641 320.942 547.307 321.276 546.973 321.276H495.933C494.598 321.276 493.597 321.776 492.763 322.61C491.929 323.444 491.429 324.612 491.429 325.78C491.429 327.114 491.929 328.115 492.763 328.949C493.597 329.783 494.765 330.283 495.933 330.283H546.973C547.307 330.283 547.641 330.617 547.641 330.95C547.641 331.284 547.307 331.618 546.973 331.618H495.933C494.265 331.618 492.763 330.95 491.763 329.783C490.762 328.782 489.928 327.281 489.928 325.613C489.928 323.945 490.595 322.444 491.763 321.443C492.763 320.442 494.265 319.608 495.933 319.608H546.973V319.942Z" fill="#242525"/>
<path d="M459.404 325.946C459.404 324.278 460.072 322.777 461.239 321.776C462.24 320.776 463.741 319.942 465.409 319.942H460.238C458.57 319.942 457.069 320.609 456.068 321.776C455.068 322.777 454.234 324.278 454.234 325.946C454.234 327.614 454.901 329.116 456.068 330.116C457.069 331.117 458.57 331.951 460.238 331.951H465.409C463.741 331.951 462.24 331.284 461.239 330.116C460.072 329.116 459.404 327.614 459.404 325.946Z" fill="#242525"/>
<path d="M466.909 325.946C466.909 324.278 467.576 322.777 468.744 321.776C469.745 320.776 471.246 319.942 472.914 319.942H467.743C466.075 319.942 464.574 320.609 463.573 321.776C462.572 322.777 461.738 324.278 461.738 325.946C461.738 327.614 462.406 329.116 463.573 330.116C464.574 331.117 466.075 331.951 467.743 331.951H472.914C471.246 331.951 469.745 331.284 468.744 330.116C467.576 329.116 466.909 327.614 466.909 325.946Z" fill="#242525"/>
<path d="M536.467 309.433H501.439C499.938 309.433 498.77 310.1 497.769 310.934C496.768 311.935 496.268 313.269 496.268 314.604C496.268 316.105 496.935 317.273 497.769 318.273C498.77 319.274 500.105 319.775 501.439 319.775H536.467C537.968 319.775 539.136 319.107 540.137 318.273C541.137 317.273 541.638 315.938 541.638 314.604C541.638 313.103 540.971 311.935 540.137 310.934C539.303 310.1 537.968 309.433 536.467 309.433Z" fill="#C8DEE1"/>
<path d="M458.236 310.1H502.939C505.441 310.1 507.609 312.102 507.609 314.771C507.609 317.273 505.608 319.441 502.939 319.441H458.236V310.1Z" fill="white"/>
<path d="M458.238 309.433C457.904 309.433 457.571 309.767 457.571 310.1C457.571 310.434 457.904 310.767 458.238 310.767H502.941C504.108 310.767 505.109 311.268 505.776 311.935C506.443 312.602 506.944 313.603 506.944 314.771C506.944 315.938 506.443 316.939 505.776 317.606C505.109 318.273 504.108 318.774 502.941 318.774H458.238C457.904 318.774 457.571 319.108 457.571 319.441C457.571 319.775 457.904 320.108 458.238 320.108H502.941C504.442 320.108 505.609 319.441 506.61 318.607C507.611 317.606 508.111 316.272 508.111 314.937C508.111 313.436 507.444 312.269 506.61 311.268C505.609 310.267 504.275 309.767 502.941 309.767H458.238V309.433Z" fill="#7A9297"/>
<path d="M534.798 314.771C534.798 313.269 534.131 312.102 533.297 311.101C532.296 310.1 530.962 309.6 529.627 309.6H534.131C535.632 309.6 536.8 310.267 537.801 311.101C538.801 312.102 539.302 313.436 539.302 314.771C539.302 316.272 538.635 317.439 537.801 318.44C536.8 319.441 535.465 319.941 534.131 319.941H529.627C531.129 319.941 532.296 319.274 533.297 318.44C534.298 317.439 534.798 316.105 534.798 314.771Z" fill="#7A9297"/>
<path d="M528.294 314.771C528.294 313.269 527.627 312.102 526.793 311.101C525.792 310.1 524.458 309.6 523.123 309.6H527.627C529.128 309.6 530.296 310.267 531.297 311.101C532.298 312.102 532.798 313.436 532.798 314.771C532.798 316.272 532.131 317.439 531.297 318.44C530.296 319.441 528.961 319.941 527.627 319.941H523.123C524.625 319.941 525.792 319.274 526.793 318.44C527.627 317.439 528.294 316.105 528.294 314.771Z" fill="#7A9297"/>
<path d="M451.064 331.951H325.631C323.462 331.951 321.627 330.116 321.627 327.948C321.627 325.779 323.462 323.945 325.631 323.945H451.064C453.233 323.945 455.067 325.779 455.067 327.948C455.067 330.116 453.233 331.951 451.064 331.951Z" fill="#141A33"/>
<path d="M451.063 331.951H325.63C324.129 331.951 322.961 331.117 322.294 330.116C322.961 328.949 324.295 328.282 325.63 328.282H451.063C452.565 328.282 453.732 329.116 454.399 330.116C453.732 331.117 452.398 331.951 451.063 331.951Z" fill="#030822"/>
<path d="M454.066 323.945H353.652C350.817 323.945 348.648 321.61 349.149 318.774L357.155 253.722C357.489 250.886 360.157 248.551 362.993 248.551H463.407C466.242 248.551 468.411 250.886 467.91 253.722L459.904 318.774C459.57 321.61 456.901 323.945 454.066 323.945Z" fill="#030822"/>
<path d="M454.066 323.945H356.655C353.819 323.945 351.651 321.61 352.151 318.774L360.157 253.722C360.491 250.886 363.16 248.551 365.995 248.551H463.407C466.242 248.551 468.411 250.886 467.91 253.722L459.904 318.774C459.57 321.61 456.901 323.945 454.066 323.945Z" fill="#2C3049"/>
<path d="M448.728 323.945H438.72L359.657 257.558L360.157 253.722C360.324 252.554 360.824 251.554 361.492 250.72L448.728 323.945ZM372.834 248.551L459.07 320.942C459.403 320.275 459.737 319.441 459.904 318.774L461.071 308.599L389.514 248.551H372.834Z" fill="#3A3F57"/>
<path d="M348.316 331.951H325.465C323.296 331.951 321.461 330.116 321.461 327.948C321.461 325.78 323.296 323.945 325.465 323.945H348.316C350.485 323.945 352.319 325.78 352.319 327.948C352.319 330.116 350.485 331.951 348.316 331.951Z" fill="#2C3049"/>
<path d="M453.066 325.946H348.649C347.481 325.946 346.647 325.112 346.647 323.945C346.647 322.777 347.481 321.943 348.649 321.943H453.066C454.233 321.943 455.067 322.777 455.067 323.945C455.067 325.112 454.067 325.946 453.066 325.946Z" fill="#00000F"/>
<path d="M412.201 276.24C406.696 276.24 401.692 280.744 401.192 286.248C400.691 291.752 404.695 296.256 410.199 296.256C415.703 296.256 420.707 291.752 421.208 286.248C421.708 280.744 417.705 276.24 412.201 276.24Z" fill="#242942"/>
<path d="M162.5 319.942H202.532C204.2 319.942 205.701 320.609 206.702 321.776C207.703 322.777 208.537 324.278 208.537 325.946C208.537 327.614 207.87 329.116 206.702 330.116C205.701 331.117 204.2 331.951 202.532 331.951H162.5C160.832 331.951 159.331 331.284 158.33 330.116C157.329 329.116 156.496 327.614 156.496 325.946C156.496 324.278 157.163 322.777 158.33 321.776C159.331 320.609 160.832 319.942 162.5 319.942Z" fill="#3B3A3A"/>
<path d="M251.904 320.609H200.863C198.028 320.609 195.526 322.944 195.526 325.946C195.526 328.782 197.861 331.284 200.863 331.284H251.904V320.609Z" fill="white"/>
<path d="M251.905 319.942C252.239 319.942 252.572 320.275 252.572 320.609C252.572 320.942 252.239 321.276 251.905 321.276H200.864C199.53 321.276 198.529 321.776 197.695 322.61C196.861 323.444 196.361 324.612 196.361 325.78C196.361 327.114 196.861 328.115 197.695 328.949C198.529 329.783 199.697 330.283 200.864 330.283H251.905C252.239 330.283 252.572 330.617 252.572 330.95C252.572 331.284 252.239 331.618 251.905 331.618H200.864C199.196 331.618 197.695 330.95 196.694 329.783C195.693 328.782 194.859 327.281 194.859 325.613C194.859 323.945 195.527 322.444 196.694 321.443C197.695 320.442 199.196 319.608 200.864 319.608H251.905V319.942Z" fill="#242525"/>
<path d="M164.335 325.946C164.335 324.278 165.002 322.777 166.17 321.776C167.171 320.776 168.672 319.942 170.34 319.942H165.169C163.501 319.942 162 320.609 160.999 321.776C159.998 322.777 159.164 324.278 159.164 325.946C159.164 327.614 159.831 329.116 160.999 330.116C162 331.117 163.501 331.951 165.169 331.951H170.34C168.672 331.951 167.171 331.284 166.17 330.116C165.002 329.116 164.335 327.614 164.335 325.946Z" fill="#242525"/>
<path d="M171.841 325.946C171.841 324.278 172.508 322.777 173.676 321.776C174.677 320.776 176.178 319.942 177.846 319.942H172.675C171.007 319.942 169.506 320.609 168.505 321.776C167.504 322.777 166.67 324.278 166.67 325.946C166.67 327.614 167.337 329.116 168.505 330.116C169.506 331.117 171.007 331.951 172.675 331.951H177.846C176.178 331.951 174.677 331.284 173.676 330.116C172.508 329.116 171.841 327.614 171.841 325.946Z" fill="#242525"/>
<path d="M241.397 309.433H206.369C204.867 309.433 203.7 310.1 202.699 310.934C201.698 311.935 201.198 313.269 201.198 314.604C201.198 316.105 201.865 317.273 202.699 318.273C203.7 319.274 205.034 319.775 206.369 319.775H241.397C242.898 319.775 244.065 319.107 245.066 318.273C246.067 317.273 246.567 315.938 246.567 314.604C246.567 313.103 245.9 311.935 245.066 310.934C244.065 310.1 242.731 309.433 241.397 309.433Z" fill="#C8DEE1"/>
<path d="M163 310.1H207.87C210.372 310.1 212.54 312.102 212.54 314.771C212.54 317.273 210.538 319.441 207.87 319.441H163.167V310.1H163Z" fill="white"/>
<path d="M163.001 309.433C162.667 309.433 162.334 309.767 162.334 310.1C162.334 310.434 162.667 310.767 163.001 310.767H207.87C209.038 310.767 210.039 311.268 210.706 311.935C211.373 312.602 211.873 313.603 211.873 314.771C211.873 315.938 211.373 316.939 210.706 317.606C210.039 318.273 209.038 318.774 207.87 318.774H163.168C162.834 318.774 162.501 319.108 162.501 319.441C162.501 319.775 162.834 320.108 163.168 320.108H207.87C209.371 320.108 210.539 319.441 211.54 318.607C212.541 317.606 213.041 316.272 213.041 314.937C213.041 313.436 212.374 312.269 211.54 311.268C210.539 310.267 209.205 309.767 207.87 309.767H163.001V309.433Z" fill="#7A9297"/>
<path d="M239.728 314.771C239.728 313.269 239.061 312.102 238.227 311.101C237.226 310.1 235.891 309.6 234.557 309.6H239.061C240.562 309.6 241.729 310.267 242.73 311.101C243.731 312.102 244.231 313.436 244.231 314.771C244.231 316.272 243.564 317.439 242.73 318.44C241.729 319.441 240.395 319.941 239.061 319.941H234.557C236.058 319.941 237.226 319.274 238.227 318.44C239.061 317.439 239.728 316.105 239.728 314.771Z" fill="#7A9297"/>
<path d="M233.056 314.771C233.056 313.269 232.389 312.102 231.555 311.101C230.554 310.1 229.22 309.6 227.885 309.6H232.389C233.89 309.6 235.058 310.267 236.058 311.101C237.059 312.102 237.56 313.436 237.56 314.771C237.56 316.272 236.892 317.439 236.058 318.44C235.058 319.441 233.723 319.941 232.389 319.941H227.885C229.386 319.941 230.554 319.274 231.555 318.44C232.556 317.439 233.056 316.105 233.056 314.771Z" fill="#7A9297"/>
<path d="M176.678 299.092H202.699C204.201 299.092 205.368 299.759 206.369 300.593C207.37 301.593 207.87 302.928 207.87 304.262C207.87 305.764 207.203 306.931 206.369 307.932C205.368 308.933 204.034 309.433 202.699 309.433H176.678C175.177 309.433 174.01 308.766 173.009 307.932C172.008 306.931 171.508 305.597 171.508 304.262C171.508 302.761 172.175 301.593 173.009 300.593C173.843 299.592 175.177 299.092 176.678 299.092Z" fill="#E9695B"/>
<path d="M232.389 299.592H201.197C198.695 299.592 196.527 301.594 196.527 304.262C196.527 306.764 198.528 308.933 201.197 308.933H232.389V299.592Z" fill="white"/>
<path d="M232.389 299.092C232.723 299.092 233.057 299.425 233.057 299.759C233.057 300.092 232.723 300.426 232.389 300.426H201.198C200.03 300.426 199.029 300.926 198.362 301.594C197.695 302.261 197.195 303.262 197.195 304.429C197.195 305.597 197.695 306.597 198.362 307.265C199.029 307.932 200.03 308.432 201.198 308.432H232.389C232.723 308.432 233.057 308.766 233.057 309.1C233.057 309.433 232.723 309.767 232.389 309.767H201.198C199.697 309.767 198.529 309.1 197.528 308.266C196.527 307.265 196.027 305.93 196.027 304.596C196.027 303.095 196.694 301.927 197.528 300.926C198.529 299.926 199.863 299.425 201.198 299.425H232.389V299.092Z" fill="#F08A71"/>
<path d="M178.18 304.262C178.18 302.761 178.847 301.593 179.681 300.593C180.682 299.592 182.016 299.092 183.351 299.092H178.847C177.346 299.092 176.178 299.759 175.177 300.593C174.177 301.593 173.676 302.928 173.676 304.262C173.676 305.764 174.343 306.931 175.177 307.932C176.178 308.933 177.513 309.433 178.847 309.433H183.351C181.849 309.433 180.682 308.766 179.681 307.932C178.847 307.098 178.18 305.764 178.18 304.262Z" fill="#F08A71"/>
<path d="M184.852 304.262C184.852 302.761 185.519 301.593 186.353 300.593C187.354 299.592 188.688 299.092 190.022 299.092H185.519C184.018 299.092 182.85 299.759 181.849 300.593C180.848 301.593 180.348 302.928 180.348 304.262C180.348 305.764 181.015 306.931 181.849 307.932C182.85 308.933 184.184 309.433 185.519 309.433H190.022C188.521 309.433 187.354 308.766 186.353 307.932C185.352 307.098 184.852 305.764 184.852 304.262Z" fill="#F08A71"/>
<path d="M357.822 503.255H345.479C344.145 503.255 342.977 504.422 342.977 505.757V524.438C342.977 525.773 344.145 526.94 345.479 526.94H357.822C359.157 526.94 360.324 525.773 360.324 524.438V505.757C360.324 504.422 359.157 503.255 357.822 503.255Z" fill="#FF802A"/>
<path d="M338.806 532.611C338.806 532.611 338.806 523.271 338.806 521.603C338.806 519.935 340.14 518.6 340.14 516.265C340.14 513.93 340.14 509.593 340.14 508.759C340.14 507.925 341.475 506.758 341.975 506.591C342.642 506.257 346.145 506.924 348.814 508.592C348.814 508.592 350.315 509.26 350.315 512.762C350.315 516.265 350.315 520.102 350.315 522.103C350.315 524.105 351.983 524.605 353.318 524.605C354.652 524.605 353.818 524.605 354.986 524.605C356.153 524.605 357.488 524.272 357.488 521.603C357.488 518.934 357.488 512.929 357.488 511.261C357.488 509.426 359.489 507.091 360.156 506.591C360.99 506.09 362.825 507.425 363.326 507.925C363.826 508.426 363.993 509.093 363.993 510.26C363.993 511.428 363.993 521.436 363.993 522.937C363.993 524.272 367.162 526.44 367.162 529.943C367.162 533.446 367.162 532.945 367.162 533.612C367.162 534.446 366.829 535.114 366.662 535.447C366.328 535.781 366.161 536.448 366.161 536.448H340.14C340.307 536.281 338.639 534.947 338.806 532.611Z" fill="#FF802A"/>
<path d="M338.807 532.612C338.807 532.612 338.807 523.271 338.807 521.603C338.807 519.935 340.142 518.601 340.142 516.265C340.142 513.93 340.142 509.593 340.142 508.759C340.142 507.925 341.476 506.758 341.976 506.591C342.31 506.424 344.145 506.591 345.98 507.258C345.98 507.258 343.978 508.759 343.811 509.26C343.644 509.76 343.811 514.097 343.811 516.599C343.811 519.101 342.143 520.602 342.143 521.269C342.143 521.937 342.143 523.438 342.143 525.106C342.143 526.607 343.311 530.277 347.314 529.943C351.484 529.609 350.817 527.107 356.154 527.107C361.492 527.107 362.326 527.107 364.328 527.107C365.328 527.107 365.829 526.774 366.162 526.273C366.83 527.274 367.33 528.442 367.33 529.776C367.33 533.279 367.33 532.778 367.33 533.446C367.33 534.28 366.996 534.947 366.83 535.281C366.496 535.614 366.329 536.281 366.329 536.281H340.308C340.308 536.281 338.64 534.947 338.807 532.612Z" fill="#FF802A"/>
<path d="M338.807 532.612C338.807 532.612 337.139 533.446 336.972 533.613C336.638 533.779 336.805 537.949 336.805 538.283C336.805 538.616 337.806 540.451 338.473 540.952C338.473 540.952 339.14 541.452 339.974 541.452C340.808 541.452 361.658 541.452 363.493 541.452C365.328 541.452 365.828 541.452 366.496 541.452C367.163 541.452 367.83 540.785 367.83 540.118C367.83 539.45 367.83 537.115 367.83 536.615C367.83 535.948 366.829 535.281 366.829 535.281C366.829 535.281 364.327 536.448 362.159 534.947C360.157 533.446 358.156 532.445 355.32 533.279C352.651 534.446 343.477 538.45 338.807 532.612Z" fill="white"/>
<path d="M338.807 532.612C338.807 532.612 337.139 533.446 336.973 533.613C336.639 533.779 336.806 537.949 336.806 538.283C336.806 538.616 337.807 540.451 338.474 540.952C338.474 540.952 339.141 541.452 339.975 541.452H357.322C359.157 540.952 360.658 540.451 360.658 540.451C360.658 540.451 346.313 540.451 344.145 540.451C341.977 540.451 340.809 539.784 340.809 538.95C340.809 538.283 340.809 537.115 340.809 535.781C340.809 535.447 340.976 535.114 341.309 534.947C340.475 534.28 339.641 533.612 338.807 532.612Z" fill="#F2DDDC"/>
<path d="M352.318 538.95C350.149 539.951 347.981 540.951 345.979 541.452C352.484 541.452 362.326 541.452 363.493 541.452C365.328 541.452 365.828 541.452 366.496 541.452C367.163 541.452 367.83 540.785 367.83 540.117C367.83 539.951 367.83 539.784 367.83 539.45C367.83 539.45 365.161 540.785 363.16 539.117C361.325 537.782 357.488 536.281 352.318 538.95Z" fill="#00000F"/>
<path d="M359.324 510.427C359.657 510.261 359.824 510.094 359.657 509.76C359.49 509.427 359.157 509.26 358.823 509.427L348.315 512.596C347.981 512.762 347.814 512.929 347.981 513.263C348.148 513.597 348.482 513.763 348.815 513.597L359.324 510.427Z" fill="white"/>
<path d="M359.324 515.598C359.657 515.431 359.824 515.264 359.657 514.931C359.49 514.597 359.157 514.431 358.823 514.597L348.315 517.767C347.981 517.933 347.814 518.1 347.981 518.434C348.148 518.767 348.482 518.934 348.815 518.767L359.324 515.598Z" fill="white"/>
<path d="M359.324 520.769C359.657 520.602 359.824 520.435 359.657 520.102C359.49 519.768 359.157 519.601 358.823 519.768L348.315 522.937C347.981 523.104 347.814 523.271 347.981 523.605C348.148 523.938 348.482 524.105 348.815 523.938L359.324 520.769Z" fill="white"/>
<path d="M348.981 509.427C348.648 509.26 348.314 509.427 348.147 509.76C347.98 510.094 348.147 510.261 348.481 510.427L358.989 513.597C359.323 513.763 359.656 513.597 359.823 513.263C359.99 512.929 359.823 512.762 359.49 512.596L348.981 509.427Z" fill="white"/>
<path d="M348.981 514.597C348.648 514.431 348.314 514.597 348.147 514.931C347.98 515.264 348.147 515.431 348.481 515.598L358.989 518.767C359.323 518.934 359.656 518.767 359.823 518.434C359.99 518.1 359.823 517.933 359.49 517.767L348.981 514.597Z" fill="white"/>
<path d="M348.981 519.768C348.648 519.601 348.314 519.768 348.147 520.102C347.98 520.435 348.147 520.602 348.481 520.769L358.989 523.938C359.323 524.105 359.656 523.938 359.823 523.605C359.99 523.271 359.823 523.104 359.49 522.937L348.981 519.768Z" fill="white"/>
</svg>
